<?xml version="1.0" encoding="UTF-8"?> <svg xmlns="http://www.w3.org/2000/svg" id="Layer_1" data-name="Layer 1" viewBox="0 0 1201 607"><defs><style>.cls-1{fill:#fff;}.cls-2{fill:#b0ee96;}.cls-3{fill:#91de7a;}.cls-4{fill:#7bce5f;}</style></defs><title>anaconda</title><rect class="cls-1" x="3" y="3" width="1195" height="601"></rect><path d="M1195,4V599H6V4H1195m6-6H0V605H1201V-2Z" transform="translate(0 2)"></path><path class="cls-2" d="M505.4,254.4,632.7,381.6l56.6-56.5L562,197.8a40,40,0,1,1,56.6-56.6l14.1,14.2a40,40,0,0,0,56.6-56.6L675.1,84.6A120,120,0,0,0,505.4,254.4Z" transform="translate(0 2)"></path><path class="cls-3" d="M562,254.4a40.1,40.1,0,0,1-56.6,0L632.7,381.6l56.6-56.5L562,197.8A40.1,40.1,0,0,1,562,254.4Z" transform="translate(0 2)"></path><path class="cls-4" d="M525.4,155.5a40,40,0,0,0-40-40h-2.3a120.4,120.4,0,0,0-10.4,77.9,41.2,41.2,0,0,0,12.7,2.1A40,40,0,0,0,525.4,155.5Z" transform="translate(0 2)"></path><path class="cls-4" d="M614.7,250.5a40,40,0,1,0,54.5,54.4Z" transform="translate(0 2)"></path><path class="cls-2" d="M709.5,386.5h-217a40,40,0,0,1,0-80h217a40,40,0,0,1,0,80Z" transform="translate(0 2)"></path><path class="cls-3" d="M759.5,466.5h-317a40,40,0,0,1,0-80h317a40,40,0,0,1,0,80Z" transform="translate(0 2)"></path><path class="cls-4" d="M467.6,426.5a40,40,0,0,1,40-40H442.5a40,40,0,0,0,0,80h65.1A40,40,0,0,1,467.6,426.5Z" transform="translate(0 2)"></path><path class="cls-2" d="M409.4,426.5V324.1a16.5,16.5,0,0,0-32.7-3.4L354.7,426c-13,62.1,34.4,120.5,97.8,120.5h357a40,40,0,0,0,0-80H449.4a40,40,0,0,1-40-40Z" transform="translate(0 2)"></path><path class="cls-4" d="M445.4,496.5a40.1,40.1,0,0,0-40,38.3,100.5,100.5,0,0,0,47.1,11.7h31.6a36.6,36.6,0,0,0,1.3-10A40,40,0,0,0,445.4,496.5Z" transform="translate(0 2)"></path><path class="cls-3" d="M417.6,506.5a40,40,0,0,1,40-40h-8.2a40,40,0,0,1-40-40V324.1a16.5,16.5,0,0,0-32.7-3.4L354.7,426c-13,62.1,34.4,120.5,97.8,120.5h5.1a40,40,0,0,1-40-40Z" transform="translate(0 2)"></path><path class="cls-3" d="M517.6,346.5a40,40,0,0,1,40-40H492.5a40,40,0,0,0,0,80h65.1A40,40,0,0,1,517.6,346.5Z" transform="translate(0 2)"></path><path class="cls-4" d="M669.2,336.5a40,40,0,0,0-40,40,40.9,40.9,0,0,0,1.2,10h77.5a40.9,40.9,0,0,0,1.3-10,40,40,0,0,0-40-40Z" transform="translate(0 2)"></path><path class="cls-4" d="M769.3,496.5a40,40,0,0,0-40,40,40.9,40.9,0,0,0,1.2,10H808a40.9,40.9,0,0,0,1.3-10,40,40,0,0,0-40-40Z" transform="translate(0 2)"></path><path class="cls-4" d="M561,476.5a40,40,0,0,0,80,0,36.6,36.6,0,0,0-1.3-10H562.3A36.6,36.6,0,0,0,561,476.5Z" transform="translate(0 2)"></path><path class="cls-4" d="M507.6,396.5a40,40,0,0,0,80,0,40.9,40.9,0,0,0-1.2-10H508.9A40.9,40.9,0,0,0,507.6,396.5Z" transform="translate(0 2)"></path><path class="cls-4" d="M729.5,416.5a40,40,0,0,0-40,40,36.6,36.6,0,0,0,1.3,10h68.7a44.3,44.3,0,0,0,9-1,44.3,44.3,0,0,0,1-9A40,40,0,0,0,729.5,416.5Z" transform="translate(0 2)"></path><path d="M668.5,133.1v-12a7.5,7.5,0,0,0-15,0v12a7.5,7.5,0,1,0,15,0Z" transform="translate(0 2)"></path><path d="M809.5,459H794.1a47.5,47.5,0,0,0-34.6-80H744.1a47.5,47.5,0,0,0-34.6-80H673.8L567.3,192.5a32.5,32.5,0,0,1,46-46l14.1,14.2a47.6,47.6,0,0,0,61.5,4.8L703,179.7v18.1a7.5,7.5,0,0,0,15,0V184.1h13.7a7.5,7.5,0,0,0,0-15H713.6l-14.1-14.2a47.5,47.5,0,0,0-4.9-61.4L680.4,79.3A127.5,127.5,0,0,0,485.7,242.4a7.5,7.5,0,0,0,10.4,1.9,7.6,7.6,0,0,0,1.9-10.5,109.7,109.7,0,0,1-15.2-30.9h2.6a47.5,47.5,0,0,0,10-94,109.9,109.9,0,0,1,15.3-19,112.4,112.4,0,0,1,159.1,0L684,104.1a32.5,32.5,0,0,1-46,46l-14.1-14.2a47.5,47.5,0,1,0-67.2,67.2l46.4,46.4A47.6,47.6,0,0,0,588.8,299H560.7L517,255.3a7.5,7.5,0,0,0-10.6,10.6L539.5,299h-47a47.5,47.5,0,0,0-34.6,80H442.5a47.9,47.9,0,0,0-25.6,7.5V324.1a24.1,24.1,0,0,0-47.6-4.9l-22,105.3A107.5,107.5,0,0,0,452.5,554h357a47.5,47.5,0,0,0,0-95ZM517.9,155.5A32.6,32.6,0,0,1,485.4,188a33.8,33.8,0,0,1-6.3-.7,111.7,111.7,0,0,1,8.7-64.2,32.5,32.5,0,0,1,30.1,32.4ZM697.1,459a20.9,20.9,0,0,1-.1-2.5,32.5,32.5,0,0,1,65,0,19.3,19.3,0,0,1-.1,2.4H697.1Zm-60.3-80a20.9,20.9,0,0,1-.1-2.5,32.5,32.5,0,0,1,65,0c0,.8-.1,1.7-.1,2.5Zm-35-93.7a32.4,32.4,0,0,1,12-25.1L652.6,299H604.9a32.3,32.3,0,0,1-3.1-13.7ZM460,346.5A32.6,32.6,0,0,1,492.5,314h217a32.5,32.5,0,0,1,7.1,64.2c0-.6.1-1.1.1-1.7a47.5,47.5,0,0,0-95,0V379H492.5A32.6,32.6,0,0,1,460,346.5Zm120.1,50a32.5,32.5,0,0,1-65,0c0-.8.1-1.7.1-2.5H580A20.9,20.9,0,0,1,580.1,396.5ZM442.5,394h57.7a20.9,20.9,0,0,0-.1,2.5,47.5,47.5,0,0,0,95,0,20.9,20.9,0,0,0-.1-2.5H759.5a32.5,32.5,0,0,1,17.4,59.9,47.5,47.5,0,0,0-94.9,2.6,20.9,20.9,0,0,0,.1,2.5H616a7.5,7.5,0,0,0,0,15h17.4a20.9,20.9,0,0,1,.1,2.5,32.5,32.5,0,0,1-65,0,20.9,20.9,0,0,1,.1-2.5h17a7.5,7.5,0,0,0,0-15H449.4a32.6,32.6,0,0,1-32.5-32.5V406.4A32.7,32.7,0,0,1,442.5,394Zm-29,136.4a32.5,32.5,0,0,1,64.4,6.1,20.9,20.9,0,0,1-.1,2.5H452.5A92.2,92.2,0,0,1,413.5,530.4Zm323.3,6.1a32.5,32.5,0,0,1,65,0c0,.8-.1,1.7-.1,2.5H736.9a20.9,20.9,0,0,1-.1-2.5Zm79.9,1.7a9.7,9.7,0,0,0,.1-1.7,47.5,47.5,0,0,0-95,0,20.9,20.9,0,0,0,.1,2.5H492.8a20.9,20.9,0,0,0,.1-2.5A47.5,47.5,0,0,0,400,522.6a92.2,92.2,0,0,1-38-95l22-105.3a9.1,9.1,0,0,1,8.9-7.2,9,9,0,0,1,9,9V426.5A47.5,47.5,0,0,0,449.4,474H553.6a20.9,20.9,0,0,0-.1,2.5,47.5,47.5,0,0,0,95,0,20.9,20.9,0,0,0-.1-2.5H809.5a32.5,32.5,0,0,1,7.2,64.2Z" transform="translate(0 2)"></path></svg> 